<?xml version="1.0" standalone="no"?>
<!DOCTYPE svg PUBLIC "-//W3C//DTD SVG 20010904//EN"
 "http://www.w3.org/TR/2001/REC-SVG-20010904/DTD/svg10.dtd">
<svg version="1.0" xmlns="http://www.w3.org/2000/svg"
 width="260.000000pt" height="260.000000pt" viewBox="0 0 260.000000 260.000000"
 preserveAspectRatio="xMidYMid meet">
<metadata>
Created by potrace 1.11, written by Peter Selinger 2001-2013
</metadata>
<g transform="translate(0.000000,260.000000) scale(0.100000,-0.100000)"
fill="#000000" stroke="none">
<path d="M0 1300 l0 -1300 1300 0 1300 0 0 1300 0 1300 -1300 0 -1300 0 0
-1300z m1975 1070 c100 -35 210 -112 265 -187 73 -99 120 -178 148 -245 25
-58 27 -74 27 -203 0 -240 -59 -409 -212 -602 -163 -206 -302 -309 -500 -370
-84 -25 -98 -27 -293 -26 -228 1 -302 13 -419 72 -71 36 -71 36 -71 13 0 -9
-20 -111 -45 -225 -25 -115 -45 -210 -45 -213 0 -2 -11 -4 -24 -4 -15 0 -27
-7 -29 -17 -3 -10 -15 -60 -27 -111 l-22 -92 -315 0 -315 0 7 28 c4 15 121
508 261 1096 140 588 256 1071 259 1074 2 2 138 7 301 10 l297 5 -5 -32 c-2
-17 -3 -31 -1 -31 2 0 20 8 41 19 38 19 163 56 217 64 17 3 120 4 230 3 182
-2 206 -4 270 -26z"/>
<path d="M1373 1850 c-100 -21 -184 -75 -233 -148 -66 -99 -91 -268 -51 -342
27 -50 78 -87 146 -105 152 -39 320 1 418 99 60 59 124 310 97 376 -17 41 -81
96 -127 110 -51 15 -198 21 -250 10z"/>
</g>
</svg>
